<svg xmlns="http://www.w3.org/2000/svg" viewBox="0 0 1255.62 328.6"><title>Logo</title><g id="Layer_2" data-name="Layer 2"><g id="logo"><path d="M565,218.57c0,15.06-20,19.78-32.23,19.78a52.69,52.69,0,0,1-13.88-1.63c-22.6-6.37-24-31.8-7.51-43.32,13.4-9.39,36.22-8.91,53.62-4.44Zm11.75-47.2c0-29.39-11.1-40.79-38.6-40.88-17.24-.54-35,5.22-42.39,17.1l10,6c4.82-7.17,12.75-10.42,21-11.8,2.41-.35,4.69-.55,6.89-.68.74,0,1.46,0,2.22,0,20,0,29.09,6.92,29.09,28.49v8.55c-23.3-4.49-46.57-3.06-61.16,6.81-24,15.77-20.23,54.35,11.75,63.06a73,73,0,0,0,17.18,2.3c10.88,0,22.77-2.06,32.58-10.58l2.29,7.57c3.13,0,8.32,0,9.13,0v-1Z" style="fill:#231f20"/><path d="M1243.84,218.57c0,15.06-20,19.78-32.22,19.78a52.53,52.53,0,0,1-13.86-1.63c-22.59-6.37-24-31.8-7.53-43.32,13.4-9.39,36.21-8.91,53.61-4.44Zm11.78-47.2c0-29.39-11.12-40.79-38.62-40.88-17.22-.54-35,5.22-42.36,17.1l10,6c4.81-7.17,12.76-10.42,21-11.8,2.37-.35,4.66-.55,6.87-.68.75,0,1.47,0,2.22,0,20,0,29.07,6.92,29.07,28.49v8.55c-23.28-4.49-46.56-3.06-61.15,6.81-24,15.77-20.23,54.35,11.75,63.06a73,73,0,0,0,17.18,2.3c10.87,0,22.76-2.06,32.58-10.58l2.32,7.57c3.1,0,8.32,0,9.1,0V171.37Z" style="fill:#231f20"/><path d="M943.92,218.57c0,15.06-20,19.78-32.22,19.78a52.59,52.59,0,0,1-13.88-1.63c-22.6-6.37-24-31.8-7.52-43.32,13.41-9.39,36.21-8.91,53.62-4.44Zm11.76-47.2c0-29.39-11.11-40.79-38.62-40.88-17.2-.54-35,5.22-42.36,17.1l10,6c4.8-7.17,12.75-10.42,21-11.8,2.39-.35,4.67-.55,6.89-.68.74,0,1.46,0,2.23,0,20,0,29.06,6.92,29.06,28.49v8.55c-23.28-4.49-46.57-3.06-61.16,6.81-24,15.77-20.22,54.35,11.76,63.06a72.74,72.74,0,0,0,17.18,2.3c10.88,0,22.77-2.06,32.57-10.58l2.32,7.57c3.12,0,8.29,0,9.1,0V171.37Z" style="fill:#231f20"/><path d="M630.6,80.79v50.89h23.58v10.6c-9.44,0-14.18,0-23.58.24V214.8c0,19.77,8.23,21.64,23.74,22.14v10.83c-21.4,1.18-35.49-6.61-35.49-32.76V142.28H598.59v-10.6h20.26V80.79Z" style="fill:#231f20"/><path d="M724.14,239.54c25.68,0,35.59-13.68,35.59-49.47,0-35.6-9.91-49-35.59-49-25.88,0-36.19,13.44-36.19,49,0,36,10.31,49.47,36.19,49.47m0,10.3c-33.46,0-48.47-16.75-48.47-59.77,0-42.59,15.19-59.58,48.47-59.58,33.69,0,47.86,17,47.86,59.58,0,43-14.17,59.77-47.86,59.77" style="fill:#231f20"/><path d="M1102.6,130.72c-13.41,0-28.25,5.23-34.59,16.25-4.94-11-18.61-16.68-33-16.68-11,0-23.82,3-32.5,12.51l-2.38-11.12c-3.13,0-8.31,0-9.13,0h0V247.3h12V165.12c0-14.59,15.07-23.78,30.14-24.25,13.66-.24,27.33,6.61,28.24,21.2V247.3h11.78V162.07c1-14.16,15.06-20.49,29.19-20.49,14.6,0,29.19,6.57,29.19,21.66V247.3h12V163.46c0-22.12-20.46-32.48-41-32.74" style="fill:#231f20"/><path d="M808.45,144.16V144l-2.61-12.35c-3.14,0-8.32,0-9.11,0h0V247.3h12V164.41c0-18.84,28.08-26.83,43.61-21.68l1.89-11c-16.39-4.18-35.62-1.63-45.8,12.48" style="fill:#231f20"/><path d="M414.12,239.12c-27,0-36-14.25-36-49.32,0-34.16,10-47.68,36.35-47.68,14.48,0,26.34,8.54,32.36,17.63V220.3c-3.8,7.12-13,18.82-32.7,18.82M458.58,80.79H446.82v65.83c-8.39-9.44-21.32-16.31-35.35-16.31-32.17,0-45.78,20-45.78,59.09,0,40.71,12.69,60.91,45.45,60.91,15.66,0,28.12-2.58,35.68-11.67v.07l2.62,8.59c3.13,0,8.32,0,9.14,0Z" style="fill:#231f20"/><path d="M283.87,80.31l-70-40L179,20.33s0,0,0,0L144,.36a2.75,2.75,0,0,0-2.72,0L106.58,20.15a1.27,1.27,0,0,0-.35.18,1.88,1.88,0,0,0-.31.21L71.71,40.12a2.28,2.28,0,0,0-.5.21c-.16.09-.29.2-.43.29L36.34,60.33l-.19.11L1.39,80.31h0v0A2.79,2.79,0,0,0,0,82.21a.2.2,0,0,0,0,.05v0H0v0H0v0H0v0H0v.06H0v0H0v0H0v0H0v0H0v0H0V245.91a2.67,2.67,0,0,0,1.39,2.37l34.32,19.65a2.44,2.44,0,0,0,.5.38l70,39.93.32.14,34.7,19.85a2.68,2.68,0,0,0,1.36.37,2.74,2.74,0,0,0,1.36-.36l35-20,0,0,34.9-19.95h0l70-40a2.73,2.73,0,0,0,1.38-2.38V82.69A2.73,2.73,0,0,0,283.87,80.31Zm-68.56,124V127.38l29.47,16.84v76.95ZM242,225.89l-26.71,15.28V210.65ZM218.09,122.65l29.45-16.82L277,122.65l-29.45,16.83Zm26.69-21.57-29.47,16.84V84.3l29.47-16.85ZM180.36,27.43,207,42.7,180.36,58ZM207,166,177.6,182.79,148.15,166l29.45-16.86Zm-35-20-26.69,15.3V130.7Zm-23.92-20,26.71-15.24v30.5Zm23.92,60-26.69,15.25V170.7Zm2.79-81.53-29.48,16.83V44.29l29.48-16.86ZM142.62,5.9l29.45,16.79L142.62,39.55,113.19,22.69ZM104.85,27.46V58L78.21,42.7ZM75.43,82.75V47.49l30.81,17.62a2.84,2.84,0,0,0,1.1.35A2.42,2.42,0,0,0,109,65.1a2.75,2.75,0,0,0,1.37-2.37V27.46l29.49,16.83v76.95L109,103.61a3.28,3.28,0,0,0-1.07-.35,3,3,0,0,0-1.7.35L75.43,121.19Zm35,104a2.61,2.61,0,0,0,.13-.85,2.78,2.78,0,0,0-.13-.87V147.53l29.49-16.83V241.17L110.39,224.3Zm-2.74-44L78.21,126l29.42-16.8L137.08,126ZM75.43,130.7l29.49,16.83v33.68L75.43,164.38Zm-2.75,38.42,29.44,16.82L72.68,202.77,43.25,185.94Zm32.24,21.55V224.3L75.43,241.17V207.51Zm-35-26.29L40.45,181.21V104.29l29.4-16.81V126a3,3,0,0,0,.08.73ZM69.85,47.5V77.93l-26.6-15.2ZM35,185.09a2.65,2.65,0,0,0-.13.85V261.1L5.5,244.3V87.43L35,104.26ZM8.27,82.69l29.45-16.8,29.44,16.8L37.72,99.51ZM104.85,301.1l-64.4-36.71V190.74l29.4,16.77v38.4a2.71,2.71,0,0,0,1.38,2.38l33.62,19.17ZM78.21,245.91l29.44-16.85,29.45,16.85-29.45,16.83Zm32.18,21.61,29.49-16.89v33.63L110.39,301.1Zm32.23,55.18-29.43-16.87L142.62,289l29.45,16.82Zm32.24-21.6-29.48-16.84V246.78a3.66,3.66,0,0,0,.13-.87,3.51,3.51,0,0,0-.13-.87V210.65l29.48,16.83Zm2.74-78.35-29.45-16.84,29.45-16.82L207,205.91Zm32.21,61.51L180.36,301.1V227.48l29.45-16.83Zm0-83.07-26.67-15.25,26.67-15.24Zm0-39.95-29.45-16.89V67.45L209.81,84.3Zm2.74-81.69L183.14,62.73l29.41-16.85L242,62.73ZM279.77,244.3l-64.46,36.83V247.49l33.6-19.21a2.7,2.7,0,0,0,1-1.08h0v-.06h0a3.58,3.58,0,0,0,.23-.65v0h0v0h0v0h0v0h0v0h0v0h0v0h0v0h0v0h0v0h0V226h0v0h0v0h0V144.22l29.49-16.84Zm0-126.38-29.49-16.84V67.45L279.77,84.3Z" style="fill:#231f20"/></g></g></svg>