<svg id="Layer_1" data-name="Layer 1" xmlns="http://www.w3.org/2000/svg" viewBox="0 0 1024.03 994.13"><title>logo_2</title><path d="M540,1c8.47,5.15,16.84,10.49,25.43,15.42,25.68,14.77,51.45,29.38,77.19,44.05q46.85,26.7,93.69,53.4,38.15,21.81,76.21,43.75c7.22,4.14,14.63,8,21.61,12.47,2,1.28,3.09,4.27,4,6.7.6,1.61.12,3.62.12,5.45q0,167,.11,334c0,5.73-1.78,9-6.83,11.8-37.12,20.92-74.06,42.14-111,63.28q-57,32.58-114,65.16c-21.1,12-42.29,23.93-63.3,36.14-4.29,2.49-7.63,2.48-11.94,0q-70.14-40.29-140.45-80.28-55.49-31.71-110.93-63.48C267,541.48,254.13,534.12,241.17,527c-3.6-2-5.25-4.39-5.25-8.67q.15-170.22,0-340.46c0-4.31,1.81-6.6,5.35-8.61q68.58-39,137-78.21,61.54-35.2,123.06-70.47C512.61,14.08,523.79,7.51,535,1ZM690.87,594.66c7.39-4.26,13.94-8.08,20.53-11.84Q767.07,551,822.8,519.27c3.27-1.86,4.1-3.92,4.1-7.47q-.15-117.93-.08-235.86v-5.39c-1.8.89-3,1.4-4.06,2-18.06,10.32-36.07,20.72-54.21,30.89-3,1.7-4,3.59-4,7,.11,54.63,0,109.26.17,163.9,0,4.9-1.36,7.93-5.78,10.41-21.19,11.87-42.17,24.12-63.32,36.05-3.41,1.92-4.9,4-4.85,8.09.25,20,.12,40,.12,60ZM309.39,552.43v-4.54q.21-80.2.42-160.41c.07-53.81,0-107.62.1-161.44,0-3.51-1.14-5.32-4.09-7-13.64-7.66-27.14-15.56-40.72-23.32-5.57-3.18-11.22-6.22-17.41-9.64V492.68c0,7-.12,14,.1,21,.05,1.52,1,3.69,2.18,4.4C269.45,529.48,289,540.71,309.39,552.43ZM469.06,59.34c0,24.73,0,48.39,0,72,0,7.55-4.06,9.91-10.61,6.18q-28.65-16.29-57.27-32.65c-1.78-1-3.59-2-5.62-3.13V256.63c1.09-.48,1.84-.74,2.51-1.12C418,244.12,438,232.78,457.85,221.25c3.74-2.17,6.82-2.29,10.63-.08,19.73,11.44,39.58,22.66,59.4,34,.91.52,1.91.89,3.13,1.46.07-1.3.16-2.13.16-2.95,0-51.67,0-103.33.11-155,0-3.54-1.71-5-4.25-6.44Q504,79.1,481.05,66C477.34,63.85,473.58,61.83,469.06,59.34ZM321.24,404c0,51.49,0,102,.15,152.45,0,1.7,2,4.05,3.63,5Q378.27,592,431.68,622.31c8.3,4.73,16.65,9.38,25.63,14.43v-4.82c0-20.5-.09-41,.08-61.49,0-3.49-1.14-5.32-4.13-7-21.49-12-42.82-24.33-64.33-36.32-4.18-2.33-5.81-5.18-5.78-9.94.19-24.33,0-48.66.19-73,0-3.91-1.25-5.92-4.6-7.74-10.24-5.56-20.25-11.52-30.38-17.27C339.57,414.21,330.75,409.31,321.24,404ZM530.75,510V277.58c-19.58,11.14-38.61,22.07-57.76,32.78-3,1.7-4,3.58-4,7,.19,25.82.21,51.64.21,77.46,0,25.66-.13,51.32,0,77a5.81,5.81,0,0,0,2.38,4.24C491.09,487.37,510.74,498.54,530.75,510ZM321.24,383.25a13.42,13.42,0,0,0,2.12-.62c19.09-10.86,38.22-21.65,57.18-32.75,1.6-.94,2.83-3.94,2.83-6q.11-76.45-.14-152.93c0-1.31-.11-2.61-.19-4.35-1.47.69-2.67,1.17-3.78,1.8-17.93,10.21-35.8,20.52-53.81,30.59-3.18,1.77-4.31,3.71-4.3,7.38q.19,75.72.09,151.44ZM543.09,257c1.17-.59,1.73-.84,2.26-1.14,18.79-10.72,37.54-21.5,56.39-32.1,2.73-1.53,3.51-3.29,3.5-6.3q-.13-76.47-.07-152.93c0-1.43-.15-2.86-.26-4.81-1.58.76-2.77,1.25-3.88,1.88-17.93,10.21-35.8,20.52-53.8,30.6C544,94,543,96,543,99.64q.18,76.21.08,152.43ZM752.58,467.9A15.2,15.2,0,0,0,753,466q0-78.48-.1-156.95a6.83,6.83,0,0,0-3-4.85c-16.79-9.86-33.7-19.51-50.61-29.17-2.54-1.45-5.2-2.68-8-4.09a13.42,13.42,0,0,0-.35,1.88q0,78.48.09,157a6.21,6.21,0,0,0,2.79,4.41c14.64,8.57,29.41,16.94,44.14,25.37ZM678.94,341.44c0-53.68,0-106.34.08-159,0-2.87-1.22-4-3.45-5.27-15.79-8.92-31.51-18-47.26-27-3.55-2-7.13-4-10.93-6.15a13.29,13.29,0,0,0-.44,2q0,78.5.09,157c0,1.52,1.52,3.57,2.91,4.44,7.22,4.46,14.61,8.65,22,12.87C654,327.23,666.11,334.12,678.94,341.44Zm0,105.33a8.54,8.54,0,0,0-1.87.4C658,458.08,639,469.09,619.84,479.84c-2.79,1.57-3,3.51-3,6.1q.06,73.23,0,146.47c0,1.22.19,2.45.34,4.25,19.74-11.28,38.88-22.32,58.15-33.14,3-1.66,3.61-3.62,3.6-6.77q-.15-72.74-.07-145.46ZM604.86,636.7c.16-1.42.3-2.06.3-2.7q0-74.5-.12-149a7.34,7.34,0,0,0-3.29-5.19c-16.34-9.65-32.82-19.07-49.29-28.49-2.92-1.68-6-3.11-9.37-4.86,0,51.2,0,101.68.13,152.16,0,1.51,1.56,3.56,3,4.44,5.22,3.26,10.68,6.12,16,9.17C576.2,620.25,590.18,628.28,604.86,636.7Zm-129.8,10.22c20.51,11.75,40.07,23,59.78,34.07,1.39.78,4.14.32,5.71-.55,14.09-7.84,28.07-15.89,42.05-23.91,5.4-3.09,10.76-6.27,16.58-9.67L553.89,621c-5.49-3.12-11-8.68-16.48-8.63-5.69.05-11.36,5.47-17,8.66C505.57,629.49,490.74,638,475.06,646.92ZM463.3,555.86l62.12-35.45C504.91,508.68,485,497.25,465,486c-1.14-.63-3.45,0-4.8.73-14.5,8.16-28.93,16.47-43.38,24.73-5,2.87-10.05,5.72-15.68,8.91ZM696.84,260.13l3.72,2.15c18.21,10.39,36.47,20.7,54.59,31.25,2.69,1.57,4.57,1.55,7.19,0,18.44-10.65,37-21.14,55.46-31.71a23.7,23.7,0,0,0,2.57-2c-19.6-11.23-38.82-22.19-58-33.28-2.61-1.51-4.59-1.58-7.28,0-9.44,5.61-19.09,10.86-28.62,16.32C716.75,248.52,707.05,254.21,696.84,260.13Zm-147.36,91.2c.41.61.53,1,.79,1.14,19.07,10.89,38.18,21.72,57.2,32.7a6.38,6.38,0,0,0,7.28-.08c9.33-5.47,18.77-10.75,28.15-16.14,9.91-5.7,19.79-11.43,30.13-17.4-20.25-11.57-40-22.91-59.87-34.07-1.19-.67-3.47-.38-4.78.33-9.34,5.11-18.56,10.43-27.81,15.71Q565,342.39,549.48,351.33Zm73.86-218a16.26,16.26,0,0,0,1.77,1.47c19.19,11,38.36,22.06,57.66,32.89,1.27.72,3.79.23,5.24-.58,11.21-6.2,22.3-12.63,33.42-19l25.46-14.54c-20.69-11.9-40.56-23.38-60.53-34.67-1-.57-3.13.06-4.39.76-8.44,4.69-16.78,9.54-25.15,14.35ZM401.18,267.11c20.5,11.72,40.23,23.06,60.07,34.21,1.19.67,3.5.31,4.84-.41,6.89-3.69,13.64-7.65,20.42-11.53L525.4,267.1c-20.55-11.69-40.45-23-60.42-34.28a4.27,4.27,0,0,0-3.55.06C441.59,244.07,421.81,255.36,401.18,267.11ZM327.4,393.76c20.51,11.75,40.22,23.11,60.05,34.27,1.19.66,3.53.29,4.86-.45,12.77-7.14,25.43-14.48,38.12-21.75l21.11-12.07c-20.38-11.64-40-22.89-59.68-34a5.86,5.86,0,0,0-4.85,0C367.32,370.87,347.72,382.13,327.4,393.76ZM548.9,436c20.49,11.64,40.24,22.93,60.11,34,1.27.7,3.79.21,5.24-.59,13-7.16,25.81-14.48,38.66-21.82,6.59-3.76,13.11-7.64,20-11.68-20-11.45-39.36-22.68-58.92-33.6-1.68-.94-4.9-.6-6.69.41C588,413.51,568.89,424.56,548.9,436ZM395.31,510.3c20.43-11.68,40.06-22.83,59.55-34.21,1.41-.82,2.51-3.39,2.52-5.16.18-21.13.12-42.26.1-63.4,0-1.06-.19-2.11-.33-3.59-6.52,3.78-12.52,7.31-18.56,10.75-13.28,7.56-26.62,15-39.84,22.7-1.48.86-3.28,2.81-3.3,4.27C395.24,464.25,395.31,486.84,395.31,510.3Zm62.18-126.57v-5.27c0-20.48-.08-41,.09-61.43,0-3.31-1-5-3.87-6.6-18.7-10.52-37.27-21.24-55.91-31.86a11.71,11.71,0,0,0-2.49-.68c0,22.89-.05,45.34.12,67.78,0,1.4,1.41,3.3,2.7,4.09,5.66,3.49,11.51,6.65,17.29,9.95C429.12,367.52,442.81,375.35,457.49,383.73Zm-80.07-207.9c-1.78-1.08-3.11-2-4.49-2.73-17.92-10.22-35.88-20.34-53.71-30.71-2.71-1.58-4.61-1.51-7.21,0-13.39,7.72-26.91,15.23-40.34,22.89-5.94,3.38-11.79,6.92-18,10.6,4.15,2.32,7.64,4.23,11.08,6.21,15.15,8.69,30.35,17.29,45.39,26.18,3.84,2.27,6.86,2.49,10.79.09,10.23-6.22,20.74-12,31.13-17.92C360.35,185.66,368.66,180.87,377.42,175.83ZM475.24,49.15c20.45,11.68,40.14,23,59.94,34.1,1.2.67,3.54.29,4.89-.45Q557.74,73,575.23,62.94c7.73-4.42,15.38-9,23.07-13.5-.38-.65-.46-1-.7-1.17C578.28,37.2,559,26.11,539.54,15.22a6.42,6.42,0,0,0-5.27.27c-12.09,6.62-24.08,13.45-36.06,20.28C490.77,40,483.39,44.4,475.24,49.15Zm289.37,94.54c0,23.37-.06,45.83.13,68.28,0,1.47,1.7,3.44,3.14,4.29C780.9,224,794,231.48,807.16,239c6.29,3.6,12.67,7.05,19,10.56.35-.61.63-.88.63-1.14,0-22.14.07-44.27-.11-66.41,0-1.5-1.52-3.52-2.9-4.38-6.34-4-12.88-7.61-19.38-11.31C791.45,158.9,778.46,151.55,764.61,143.69ZM531.17,530.56c-20.57,11.75-40.36,23-60,34.44-1.24.72-2,3.23-2,4.92-.13,21.16-.08,42.33-.07,63.5,0,.9.12,1.8.23,3.36,6.47-3.7,12.35-7.08,18.24-10.44,13.59-7.75,27.22-15.43,40.74-23.31,1.31-.76,2.76-2.68,2.77-4.07C531.23,576.47,531.17,554,531.17,530.56ZM753,143.92c-2.39,1.19-4.18,2-5.87,2.94-17.91,10.21-35.84,20.38-53.63,30.79-1.4.82-2.51,3.38-2.52,5.15-.17,21.13-.12,42.27-.09,63.41a21.49,21.49,0,0,0,.58,3.41c20-11.4,39.47-22.49,58.88-33.75a5.78,5.78,0,0,0,2.54-4.14C753.05,189.44,753,167.14,753,143.92Zm-209.59,218v63.74l55.91-31.89Zm0-84.51v63.92l55.91-32Zm135.46,84.4-56,32,56,31.93ZM617.17,123.33l56-32-56-32ZM548.88,267.14l56,31.87V235.25Zm142.4,179.24V510L747,478.13ZM457.05,59.4,401.17,91.3l55.88,32ZM327.34,133.61,383,165.33V101.79Z" transform="translate(-25 -1)"/><path d="M25,914c1-5.55,1.69-11.15,2.91-16.64,8.19-36.73,46-52.29,78-32.05,4.31,2.73,8.21,6.08,12.79,9.51v-74.4h13.15V991.18c-8.83,1.71-8.83,1.71-13.52-9.16-6.89,8.4-16.73,10.44-26.34,13H67c-24.23-4.34-35.78-20.34-39.76-43.27-.85-4.89-1.5-9.82-2.24-14.73Zm93.76,12.27c0-10.33.2-20.67-.13-31a13.79,13.79,0,0,0-2.91-8c-11.87-13.75-27-18.73-44.87-15.86-14.66,2.35-24.37,10.6-27.86,25a128.46,128.46,0,0,0,.37,61.35,30.56,30.56,0,0,0,14.93,19.83c19,10.76,47.49,3.66,59-14.77a11.33,11.33,0,0,0,1.45-5.59C118.84,946.93,118.76,936.6,118.76,926.27Z" transform="translate(-25 -1)"/><path d="M988,995c-3.5-.93-7-1.78-10.5-2.81-18.12-5.4-29.86-20.31-30.26-38.35-.4-17.84,11-33.23,28.87-39.48,18.33-6.4,36.95-5.93,55.73-2.9,1,.16,1.91.25,3.28.43.34-9.56.82-18.89-2.62-27.78-2.73-7-8.32-11.22-15.5-12.91-11.74-2.77-23.59-2.87-34.83,1.84-5.51,2.31-10.33,6.29-16.26,10l-10.2-6c6.92-10.32,17-14.83,27.93-17.6a80.59,80.59,0,0,1,35.67-.82c16.64,3.27,25.48,12.48,28.57,29.15.27,1.43.74,2.83,1.12,4.24V992c-6.69.79-12.24-.28-13.27-6.9L1010,995Zm47.31-51.08c0-4.83-.32-9.69.09-14.48.35-4.12-1.38-5.66-5.11-6.12-4.63-.56-9.21-1.6-13.84-1.94-15.17-1.08-30.09-.3-43.13,8.81-8.72,6.09-12.92,14.84-12.06,25.37.84,10.25,6.32,18.22,15.9,21.85,16.31,6.17,32.69,5.42,48.3-2.76,6.73-3.53,10-9.51,9.86-17.24C1035.24,952.92,1035.3,948.42,1035.31,943.92Z" transform="translate(-25 -1)"/><path d="M207,995c-3.5-1-7-1.83-10.48-2.85-18-5.32-29.73-20.34-30.12-38.5-.38-17.54,11.15-33.07,28.61-39.2,18.52-6.49,37.29-6,56.26-2.93l3.06.5c.27-9.85.88-19.47-3-28.57-2.75-6.57-8.17-10.58-15-12.19-12.79-3-25.56-2.87-37.64,2.79-4.55,2.13-8.42,5.72-13.35,9.17l-10.49-6.08c3.74-6.52,9.35-10.51,15.72-13.39a75.42,75.42,0,0,1,54.16-3.43c16.46,4.94,21.55,18.52,23,34,.38,4,.37,8,.37,12q0,39.75,0,79.5v5.27c-9,1.8-9.3,1.63-13-6.13L229,995Zm47.49-51.46c0-5.16-.14-10.34.06-15.49.11-2.71-.8-3.95-3.49-4.31-5.11-.69-10.17-2-15.29-2.34-15.71-1.17-31.25-.42-44.38,9.62-8.64,6.6-12.67,15.87-10.64,26.87,2,10.78,8.71,17.81,19.14,21a60.43,60.43,0,0,0,36-.31c16-5,19.38-12.56,18.65-24.5C254.31,950.55,254.49,947,254.49,943.54Z" transform="translate(-25 -1)"/><path d="M643,995c-2.54-.66-5.06-1.4-7.62-2-19-4.3-32.26-19.59-33.17-38.19-.89-18,10.8-34.21,28.9-40.5,18.34-6.37,37-5.92,55.76-2.86,1,.15,1.93.32,3.61.61.13-10.09.85-19.83-3.46-29-3-6.46-8.39-10.37-15.19-12-11.41-2.64-23-2.75-33.91,1.62-5.7,2.27-10.68,6.31-17.1,10.23L610,876.74c3.71-3.46,6.6-7.21,10.37-9.49,19.27-11.66,40-12.93,61.12-6.59,13.36,4,19,14.82,21.31,27.71A77.56,77.56,0,0,1,704,901.28c.11,29,.08,58,.08,87,0,1-.14,2-.22,2.87-9.13,2-9.61,1.71-12.72-6.2L665,995Zm47.6-51.39c0-5.33.19-10.67-.13-16a4.87,4.87,0,0,0-2.82-3.55,110.6,110.6,0,0,0-15.73-2.64c-15.33-1.22-30.49-.53-43.6,8.76-9.25,6.56-13.85,16-11.86,27.31,2,11.53,9.37,18.71,20.78,21.73,11.77,3.11,23.46,2.46,35-.8,12.92-3.64,18.35-11.08,18.35-24.34Z" transform="translate(-25 -1)"/><path d="M431,995c-2.61-.45-5.21-.91-7.82-1.33-20.33-3.34-32.89-15.4-37.73-35a136.87,136.87,0,0,1-.84-61.46c5.36-25.36,18.85-37.07,44.67-39.32a103.77,103.77,0,0,1,25.31,1.2c16.34,2.63,27.63,12.26,32.65,28,8,25.1,7.84,50.58.66,75.79-5.43,19.07-19.18,28.87-38.59,31.17a41.07,41.07,0,0,0-4.31,1Zm48.4-66.43c-1-10.2-1.32-18.2-2.53-26.08-3.36-21.93-15.23-32.34-37.36-33.11a74.78,74.78,0,0,0-10.46.58c-15.32,1.62-26.44,11.06-29.8,26a135.09,135.09,0,0,0,.11,60.41c3.44,15,14.16,24.06,29.5,25.58a89.18,89.18,0,0,0,16.42.11c15.57-1.38,25.72-9.41,29.53-24.64C477.34,947.35,478.14,936.83,479.4,928.57Z" transform="translate(-25 -1)"/><path d="M1010,995l25.73-9.9c1,6.62,6.58,7.69,13.27,6.9,0,1.65.63,3.2-2.5,3.12C1034.34,994.82,1022.17,995,1010,995Z" transform="translate(-25 -1)" style="fill:#fff"/><path d="M758.31,991.54H745V858.44c3.41.41,8-.37,10,1.56,2.16,2.14,1.87,6.75,2.78,11,11.39-10.24,24.53-14.43,39.15-13.87,14.78.57,27.82,4.9,36.42,18.53,7.65-11.06,18.82-15.76,31.32-17.44,14.1-1.9,27.56.44,39.76,8.22,9.48,6.05,15.29,14.64,15.39,25.92.3,32.65.11,65.3.1,98a4.74,4.74,0,0,1-.45,1.23H906.13V898.71c0-15.37-5.64-23-20.54-27-11.66-3.1-23.16-2.51-33.94,3.38-8.43,4.61-12.71,11.67-12.65,21.56.16,29.66.06,59.31.06,89v5.82H825.49V900c0-20.89-13.81-33.19-34.86-30.62a49.56,49.56,0,0,0-14.84,4c-11.24,5.29-17.75,13.76-17.59,27.05.35,28.48.11,57,.11,85.46Z" transform="translate(-25 -1)"/><path d="M329.94,858.69h26.88v12.16h-26.4c-.13,1.94-.31,3.37-.31,4.79,0,26-.06,52,0,77.94A58.19,58.19,0,0,0,331.21,965c1.75,8.65,7,13.09,15.86,13.92,3.28.31,6.56.57,10,.87V991.5c-18.24,5-36.67-6.7-39.42-25.18a92.55,92.55,0,0,1-.93-13.42c-.09-25.32,0-50.63,0-75.94v-6h-23.3V858.86h23.28V800.4h13.27Z" transform="translate(-25 -1)"/><path d="M535,991.56H521.39V859h10.17c1,4.31,1.91,8.48,3,13.38,14.49-16.07,32.44-18.07,52.8-13.77l-2.21,12.52c-10.56-2.36-20.56-1.93-30.27,1.87-12,4.66-20.55,12.77-20.11,28.57.78,28.13.22,56.29.22,84.43Z" transform="translate(-25 -1)"/></svg>