<svg xmlns="http://www.w3.org/2000/svg" class="svg-symbols">
    <symbol id="svg-icon1" viewBox="0 0 140 140">
      <title>icon1</title><g id="Layer_2" data-name="Layer 2"><g id="design"><g id="_02_def" data-name="02_def"><circle cx="70" cy="70" r="70" style="fill:#fff"/><path d="M70,17.71a45.53,45.53,0,0,1,19.18,4.13A49.83,49.83,0,0,1,104.86,33a54,54,0,0,1,14.45,37,54,54,0,0,1-1.78,13.91,54.84,54.84,0,0,1-5,12.5A51.93,51.93,0,0,1,104.86,107a49.68,49.68,0,0,1-10,8.16,48.52,48.52,0,0,1-11.78,5.28,46.62,46.62,0,0,1-26.23,0,48.56,48.56,0,0,1-11.79-5.28,49.67,49.67,0,0,1-10-8.16A51.77,51.77,0,0,1,27.45,96.4a54.72,54.72,0,0,1-5-12.5A53.91,53.91,0,0,1,20.69,70H41.42A31.23,31.23,0,0,0,43.65,81.8a30.69,30.69,0,0,0,6.13,9.66,28.71,28.71,0,0,0,9.1,6.5,27.39,27.39,0,0,0,22.25,0,28.71,28.71,0,0,0,9.1-6.5,30.71,30.71,0,0,0,6.13-9.66,32.42,32.42,0,0,0,0-23.61,30.7,30.7,0,0,0-6.13-9.65A28.72,28.72,0,0,0,81.12,42,26.56,26.56,0,0,0,70,39.67Z" style="fill:#aa987e"/><path d="M32.38,67.24c-13.1,0-17.82-13.2-17.87-13.34a1.32,1.32,0,0,1,.18-1.2,1.17,1.17,0,0,1,1.08-.55c9.37.1,11.7-8.72,11.8-9.09a1.32,1.32,0,0,1,2.55.65c0,.11-2.62,9.9-12.4,11C19.4,58.09,24.2,65.42,34,64.53a1.32,1.32,0,1,1,.24,2.62Q33.28,67.24,32.38,67.24Z" style="fill:#aa987e"/><circle cx="16.44" cy="52.41" r="4.54" style="fill:#aa987e"/><circle cx="32.68" cy="55.47" r="2.13" transform="translate(-24.49 85.09) rotate(-86.89)" style="fill:#aa987e"/><path d="M31.62,39.83a1.55,1.55,0,0,1-1.3-2.39A41.52,41.52,0,0,1,65.38,18a1.55,1.55,0,0,1,1.47,1.62,1.58,1.58,0,0,1-1.62,1.47,39.08,39.08,0,0,0-32.31,18A1.55,1.55,0,0,1,31.62,39.83Z" style="fill:#aa987e"/><path d="M37.23,46.22a1.55,1.55,0,0,1-1.3-2.39C47.27,26.3,64.78,27.14,65.52,27.19A1.55,1.55,0,0,1,67,28.83a1.57,1.57,0,0,1-1.64,1.45h0c-.67,0-16.48-.73-26.81,15.23A1.55,1.55,0,0,1,37.23,46.22Z" style="fill:#aa987e"/><path d="M43.3,51.18A1.55,1.55,0,0,1,42,48.79c9.45-14.59,22.93-13.06,23.5-13a1.55,1.55,0,0,1,1.34,1.73,1.57,1.57,0,0,1-1.73,1.34c-.49-.06-12.15-1.3-20.51,11.6A1.55,1.55,0,0,1,43.3,51.18Z" style="fill:#aa987e"/></g></g></g>
    </symbol>
    <symbol id="svg-icon2" viewBox="0 0 140 140">
      <title>icon2</title><g id="Layer_2" data-name="Layer 2"><g id="design"><g id="_02_brown" data-name="02_brown"><circle cx="70" cy="70" r="70" style="fill:#ac9a7f"/><path d="M70,17.71a45.53,45.53,0,0,1,19.18,4.13A49.83,49.83,0,0,1,104.86,33a54,54,0,0,1,14.45,37,54,54,0,0,1-1.78,13.91,54.84,54.84,0,0,1-5,12.5A51.93,51.93,0,0,1,104.86,107a49.68,49.68,0,0,1-10,8.16,48.52,48.52,0,0,1-11.78,5.28,46.62,46.62,0,0,1-26.23,0,48.56,48.56,0,0,1-11.79-5.28,49.67,49.67,0,0,1-10-8.16A51.77,51.77,0,0,1,27.45,96.4a54.72,54.72,0,0,1-5-12.5A53.91,53.91,0,0,1,20.69,70H41.42A31.23,31.23,0,0,0,43.65,81.8a30.69,30.69,0,0,0,6.13,9.66,28.71,28.71,0,0,0,9.1,6.5,27.39,27.39,0,0,0,22.25,0,28.71,28.71,0,0,0,9.1-6.5,30.71,30.71,0,0,0,6.13-9.66,32.42,32.42,0,0,0,0-23.61,30.7,30.7,0,0,0-6.13-9.65A28.72,28.72,0,0,0,81.12,42,26.56,26.56,0,0,0,70,39.67Z" style="fill:#fff"/><path d="M32.38,67.24c-13.1,0-17.82-13.2-17.87-13.34a1.32,1.32,0,0,1,.18-1.2,1.17,1.17,0,0,1,1.08-.55c9.37.1,11.7-8.72,11.8-9.09a1.32,1.32,0,0,1,2.55.65c0,.11-2.62,9.9-12.4,11C19.4,58.09,24.2,65.42,34,64.53a1.32,1.32,0,1,1,.24,2.62Q33.28,67.24,32.38,67.24Z" style="fill:#fff"/><circle cx="16.44" cy="52.41" r="4.54" style="fill:#fff"/><circle cx="32.68" cy="55.47" r="2.13" transform="translate(-24.49 85.09) rotate(-86.89)" style="fill:#fff"/><path d="M31.62,39.83a1.55,1.55,0,0,1-1.3-2.39A41.52,41.52,0,0,1,65.38,18a1.55,1.55,0,0,1,1.47,1.62,1.58,1.58,0,0,1-1.62,1.47,39.08,39.08,0,0,0-32.31,18A1.55,1.55,0,0,1,31.62,39.83Z" style="fill:#fff"/><path d="M37.23,46.22a1.55,1.55,0,0,1-1.3-2.39C47.27,26.3,64.78,27.14,65.52,27.19A1.55,1.55,0,0,1,67,28.83a1.57,1.57,0,0,1-1.64,1.45h0c-.67,0-16.48-.73-26.81,15.23A1.55,1.55,0,0,1,37.23,46.22Z" style="fill:#fff"/><path d="M43.3,51.18A1.55,1.55,0,0,1,42,48.79c9.45-14.59,22.93-13.06,23.5-13a1.55,1.55,0,0,1,1.34,1.73,1.57,1.57,0,0,1-1.73,1.34c-.49-.06-12.15-1.3-20.51,11.6A1.55,1.55,0,0,1,43.3,51.18Z" style="fill:#fff"/></g></g></g>
    </symbol>
    <symbol id="svg-icon3" viewBox="0 0 140 140">
      <title>icon3</title><g id="Layer_2" data-name="Layer 2"><g id="design"><g id="_02_black_w" data-name="02_black_w"><circle cx="70" cy="70" r="70"/><path d="M70,17.71a45.53,45.53,0,0,1,19.18,4.13A49.83,49.83,0,0,1,104.86,33a54,54,0,0,1,14.45,37,54,54,0,0,1-1.78,13.91,54.84,54.84,0,0,1-5,12.5A51.93,51.93,0,0,1,104.86,107a49.68,49.68,0,0,1-10,8.16,48.52,48.52,0,0,1-11.78,5.28,46.62,46.62,0,0,1-26.23,0,48.56,48.56,0,0,1-11.79-5.28,49.67,49.67,0,0,1-10-8.16A51.77,51.77,0,0,1,27.45,96.4a54.72,54.72,0,0,1-5-12.5A53.91,53.91,0,0,1,20.69,70H41.42A31.23,31.23,0,0,0,43.65,81.8a30.69,30.69,0,0,0,6.13,9.66,28.71,28.71,0,0,0,9.1,6.5,27.39,27.39,0,0,0,22.25,0,28.71,28.71,0,0,0,9.1-6.5,30.71,30.71,0,0,0,6.13-9.66,32.42,32.42,0,0,0,0-23.61,30.7,30.7,0,0,0-6.13-9.65A28.72,28.72,0,0,0,81.12,42,26.56,26.56,0,0,0,70,39.67Z" style="fill:#fff"/><path d="M32.38,67.24c-13.1,0-17.82-13.2-17.87-13.34a1.32,1.32,0,0,1,.18-1.2,1.17,1.17,0,0,1,1.08-.55c9.37.1,11.7-8.72,11.8-9.09a1.32,1.32,0,0,1,2.55.65c0,.11-2.62,9.9-12.4,11C19.4,58.09,24.2,65.42,34,64.53a1.32,1.32,0,1,1,.24,2.62Q33.28,67.24,32.38,67.24Z" style="fill:#fff"/><circle cx="16.44" cy="52.41" r="4.54" style="fill:#fff"/><circle cx="32.68" cy="55.47" r="2.13" transform="translate(-24.49 85.09) rotate(-86.89)" style="fill:#fff"/><path d="M31.62,39.83a1.55,1.55,0,0,1-1.3-2.39A41.52,41.52,0,0,1,65.38,18a1.55,1.55,0,0,1,1.47,1.62,1.58,1.58,0,0,1-1.62,1.47,39.08,39.08,0,0,0-32.31,18A1.55,1.55,0,0,1,31.62,39.83Z" style="fill:#fff"/><path d="M37.23,46.22a1.55,1.55,0,0,1-1.3-2.39C47.27,26.3,64.78,27.14,65.52,27.19A1.55,1.55,0,0,1,67,28.83a1.57,1.57,0,0,1-1.64,1.45h0c-.67,0-16.48-.73-26.81,15.23A1.55,1.55,0,0,1,37.23,46.22Z" style="fill:#fff"/><path d="M43.3,51.18A1.55,1.55,0,0,1,42,48.79c9.45-14.59,22.93-13.06,23.5-13a1.55,1.55,0,0,1,1.34,1.73,1.57,1.57,0,0,1-1.73,1.34c-.49-.06-12.15-1.3-20.51,11.6A1.55,1.55,0,0,1,43.3,51.18Z" style="fill:#fff"/></g></g></g>
    </symbol>
    <symbol id="svg-icon4" viewBox="0 0 140 140">
      <title>icon4</title><g id="Layer_2" data-name="Layer 2"><g id="design"><g id="_02_black_b" data-name="02_black_b"><circle cx="70" cy="70" r="70"/><path d="M70,17.71a45.53,45.53,0,0,1,19.18,4.13A49.83,49.83,0,0,1,104.86,33a54,54,0,0,1,14.45,37,54,54,0,0,1-1.78,13.91,54.84,54.84,0,0,1-5,12.5A51.93,51.93,0,0,1,104.86,107a49.68,49.68,0,0,1-10,8.16,48.52,48.52,0,0,1-11.78,5.28,46.62,46.62,0,0,1-26.23,0,48.56,48.56,0,0,1-11.79-5.28,49.67,49.67,0,0,1-10-8.16A51.77,51.77,0,0,1,27.45,96.4a54.72,54.72,0,0,1-5-12.5A53.91,53.91,0,0,1,20.69,70H41.42A31.23,31.23,0,0,0,43.65,81.8a30.69,30.69,0,0,0,6.13,9.66,28.71,28.71,0,0,0,9.1,6.5,27.39,27.39,0,0,0,22.25,0,28.71,28.71,0,0,0,9.1-6.5,30.71,30.71,0,0,0,6.13-9.66,32.42,32.42,0,0,0,0-23.61,30.7,30.7,0,0,0-6.13-9.65A28.72,28.72,0,0,0,81.12,42,26.56,26.56,0,0,0,70,39.67Z" style="fill:#ac9a7f"/><path d="M32.38,67.24c-13.1,0-17.82-13.2-17.87-13.34a1.32,1.32,0,0,1,.18-1.2,1.17,1.17,0,0,1,1.08-.55c9.37.1,11.7-8.72,11.8-9.09a1.32,1.32,0,0,1,2.55.65c0,.11-2.62,9.9-12.4,11C19.4,58.09,24.2,65.42,34,64.53a1.32,1.32,0,1,1,.24,2.62Q33.28,67.24,32.38,67.24Z" style="fill:#ac9a7f"/><circle cx="16.44" cy="52.41" r="4.54" style="fill:#ac9a7f"/><circle cx="32.68" cy="55.47" r="2.13" transform="translate(-24.49 85.09) rotate(-86.89)" style="fill:#ac9a7f"/><path d="M31.62,39.83a1.55,1.55,0,0,1-1.3-2.39A41.52,41.52,0,0,1,65.38,18a1.55,1.55,0,0,1,1.47,1.62,1.58,1.58,0,0,1-1.62,1.47,39.08,39.08,0,0,0-32.31,18A1.55,1.55,0,0,1,31.62,39.83Z" style="fill:#ac9a7f"/><path d="M37.23,46.22a1.55,1.55,0,0,1-1.3-2.39C47.27,26.3,64.78,27.14,65.52,27.19A1.55,1.55,0,0,1,67,28.83a1.57,1.57,0,0,1-1.64,1.45h0c-.67,0-16.48-.73-26.81,15.23A1.55,1.55,0,0,1,37.23,46.22Z" style="fill:#ac9a7f"/><path d="M43.3,51.18A1.55,1.55,0,0,1,42,48.79c9.45-14.59,22.93-13.06,23.5-13a1.55,1.55,0,0,1,1.34,1.73,1.57,1.57,0,0,1-1.73,1.34c-.49-.06-12.15-1.3-20.51,11.6A1.55,1.55,0,0,1,43.3,51.18Z" style="fill:#ac9a7f"/></g></g></g>
    </symbol>
    <symbol id="svg-logo1" viewBox="0 0 211.03 68.75">
      <title>logo1</title><g id="Layer_2" data-name="Layer 2"><g id="design"><g id="_01_def" data-name="01_def"><path d="M9.36,23.67a6.9,6.9,0,0,1,2.86.6,8.1,8.1,0,0,1,2.34,1.58,7.35,7.35,0,0,1,1.6,2.31A7,7,0,0,1,16.75,31V61.39a7,7,0,0,1-.59,2.87,7.8,7.8,0,0,1-1.6,2.35A7.32,7.32,0,0,1,2,61.39V31a7.36,7.36,0,0,1,.56-2.87,6.92,6.92,0,0,1,1.57-2.31A8.1,8.1,0,0,1,6.5,24.26,6.91,6.91,0,0,1,9.36,23.67Z" style="fill:#ac9a7f"/><path d="M82.76,20.46a19.8,19.8,0,0,1-1.33,7.22,20.51,20.51,0,0,1-3.64,6.1,20.56,20.56,0,0,1,3.64,6.1,20.52,20.52,0,0,1-.28,15.24A20.4,20.4,0,0,1,70.25,66a19.93,19.93,0,0,1-8,1.61H39.17a7.16,7.16,0,0,1-2.8-.56,6.78,6.78,0,0,1-2.28-1.54,7.6,7.6,0,0,1-1.51-2.28A6.88,6.88,0,0,1,32,60.48V7.08a6.87,6.87,0,0,1,.56-2.77,7.14,7.14,0,0,1,1.51-2.24A7,7,0,0,1,36.37.56,7.14,7.14,0,0,1,39.17,0H62.29a19.93,19.93,0,0,1,8,1.61,20.4,20.4,0,0,1,10.9,10.9A19.93,19.93,0,0,1,82.76,20.46Zm-16,4.42a6.26,6.26,0,0,0,0-8.83,6,6,0,0,0-4.42-1.82h-16V26.7h16A6,6,0,0,0,66.71,24.88ZM46.25,53.33h16a6.08,6.08,0,0,0,4.42-1.79,5.9,5.9,0,0,0,1.82-4.38,6.22,6.22,0,0,0-6.24-6.24h-16Z" style="fill:#ac9a7f"/><path d="M123.66.06A29.4,29.4,0,0,1,136,2.73a32.17,32.17,0,0,1,10.12,7.22,34.87,34.87,0,0,1,9.33,23.87,34.89,34.89,0,0,1-1.15,9,35.41,35.41,0,0,1-3.22,8.07,33.53,33.53,0,0,1-5,6.82A32.08,32.08,0,0,1,139.73,63a31.33,31.33,0,0,1-7.61,3.41,30.1,30.1,0,0,1-16.94,0A31.35,31.35,0,0,1,107.58,63a32.07,32.07,0,0,1-6.43-5.27,33.43,33.43,0,0,1-5-6.82A35.33,35.33,0,0,1,93,42.8a34.81,34.81,0,0,1-1.15-9H105.2a20.16,20.16,0,0,0,1.44,7.62,19.81,19.81,0,0,0,4,6.23,18.54,18.54,0,0,0,5.87,4.2,17.69,17.69,0,0,0,14.37,0,18.54,18.54,0,0,0,5.87-4.2,19.83,19.83,0,0,0,4-6.23,20.93,20.93,0,0,0,0-15.24,19.83,19.83,0,0,0-4-6.23,18.54,18.54,0,0,0-5.87-4.2,17.15,17.15,0,0,0-7.18-1.53Z" style="fill:#ac9a7f"/><path d="M196.37,28.69a27.68,27.68,0,0,1,6,3.19A22,22,0,0,1,207,36.21a19.83,19.83,0,0,1,3,5.17,15.74,15.74,0,0,1,1.06,5.7,16.3,16.3,0,0,1-2,7.85,20.78,20.78,0,0,1-5.47,6.44,26.87,26.87,0,0,1-8.14,4.33,31.06,31.06,0,0,1-10,1.58,32.52,32.52,0,0,1-9.79-1.38,36.76,36.76,0,0,1-7.76-3.39,28.13,28.13,0,0,1-5.68-4.33,24.21,24.21,0,0,1-3.48-4.26h-.09a5.68,5.68,0,0,1-1-5.33,7.3,7.3,0,0,1,4.11-4.33,11.06,11.06,0,0,1,3.35-.94,10.13,10.13,0,0,1,3.39.17,11.37,11.37,0,0,1,3.09,1.17A7.34,7.34,0,0,1,174,46.74l.17.2a.61.61,0,0,1,.21.27.57.57,0,0,0,.21.27,7.16,7.16,0,0,0,.72,1,11.88,11.88,0,0,0,2.08,1.95,16.05,16.05,0,0,0,3.35,1.91,11.66,11.66,0,0,0,4.7.87,9.79,9.79,0,0,0,3.05-.47A8,8,0,0,0,191,51.4a6.21,6.21,0,0,0,1.65-1.95,5,5,0,0,0,.59-2.38,5.42,5.42,0,0,0-1.14-3.29,6.67,6.67,0,0,0-3.18-2.28l-15.09-5.1a1.54,1.54,0,0,1-.51-.13,23,23,0,0,1-9.66-7,15.76,15.76,0,0,1-3.56-10A15.16,15.16,0,0,1,162,11.92a19.69,19.69,0,0,1,5.13-6,25.56,25.56,0,0,1,7.59-4.06A28.44,28.44,0,0,1,184.07.31,27.55,27.55,0,0,1,193,1.68a39.51,39.51,0,0,1,7,3.12,30.06,30.06,0,0,1,4.79,3.32q1.78,1.58,2.12,2a6.72,6.72,0,0,1,1.57,2.52,5.63,5.63,0,0,1,.25,2.72,6,6,0,0,1-1.1,2.58A7.77,7.77,0,0,1,205.35,20a9.61,9.61,0,0,1-3.18,1.21,11.82,11.82,0,0,1-3.43.17,10.49,10.49,0,0,1-3.22-.84,8.15,8.15,0,0,1-2.63-1.81,14.78,14.78,0,0,0-1.48-1.31A15.7,15.7,0,0,0,189.2,16a17.86,17.86,0,0,0-2.54-1.14,7.67,7.67,0,0,0-2.58-.47,6.82,6.82,0,0,0-4.37,1.44,4.29,4.29,0,0,0-1.82,3.46,4,4,0,0,0,.89,2.48,6.2,6.2,0,0,0,2.33,1.81l14.92,5a.42.42,0,0,1,.21,0A.2.2,0,0,0,196.37,28.69Z" style="fill:#ac9a7f"/><circle cx="9.39" cy="9.43" r="9.39" style="fill:#ac9a7f"/><path d="M99.2,32.13c-8.46,0-11.51-8.52-11.54-8.61a.85.85,0,0,1,.11-.77.76.76,0,0,1,.7-.35c6,.06,7.56-5.63,7.62-5.87a.85.85,0,0,1,1.65.42c0,.07-1.69,6.39-8,7.09,1.09,2.19,4.19,6.93,10.5,6.35a.85.85,0,0,1,.15,1.69Q99.77,32.13,99.2,32.13Z" style="fill:#ac9a7f"/><circle cx="88.9" cy="22.55" r="2.93" style="fill:#ac9a7f"/><circle cx="99.39" cy="24.53" r="1.37" transform="translate(69.5 122.44) rotate(-86.89)" style="fill:#ac9a7f"/><path d="M98.7,14.43a1,1,0,0,1-.84-1.54A26.81,26.81,0,0,1,120.5.35a1,1,0,0,1,.95,1,1,1,0,0,1-1,1A25.23,25.23,0,0,0,99.54,14,1,1,0,0,1,98.7,14.43Z" style="fill:#ac9a7f"/><path d="M102.33,18.56a1,1,0,0,1-.84-1.54C108.81,5.69,120.11,6.24,120.6,6.27a1,1,0,0,1,.94,1.06,1,1,0,0,1-1.06.94h0c-.43,0-10.64-.47-17.31,9.84A1,1,0,0,1,102.33,18.56Z" style="fill:#ac9a7f"/><path d="M106.24,22.31a1,1,0,0,1-.84-1.54c6.1-9.42,14.81-8.43,15.17-8.39a1,1,0,0,1,.87,1.12,1,1,0,0,1-1.11.87c-.32,0-7.85-.84-13.25,7.49A1,1,0,0,1,106.24,22.31Z" style="fill:#ac9a7f"/></g></g></g>
    </symbol>
    <symbol id="svg-logo2" viewBox="0 0 280 130">
      <title>logo2</title><g id="Layer_2" data-name="Layer 2"><g id="design"><g id="_01_brown" data-name="01_brown"><rect width="280" height="130" style="fill:#ac9a7f"/><path d="M43.84,54.3a6.9,6.9,0,0,1,2.86.6A8.1,8.1,0,0,1,49,56.47a7.35,7.35,0,0,1,1.6,2.31,7,7,0,0,1,.59,2.87V92a7,7,0,0,1-.59,2.87A7.8,7.8,0,0,1,49,97.24,7.32,7.32,0,0,1,36.52,92V61.65a7.36,7.36,0,0,1,.56-2.87,6.92,6.92,0,0,1,1.57-2.31A8.1,8.1,0,0,1,41,54.89,6.91,6.91,0,0,1,43.84,54.3Z" style="fill:#fff"/><path d="M117.24,51.09a19.8,19.8,0,0,1-1.33,7.22,20.51,20.51,0,0,1-3.64,6.1,20.56,20.56,0,0,1,3.64,6.1,20.52,20.52,0,0,1-.28,15.24,20.4,20.4,0,0,1-10.9,10.9,19.93,19.93,0,0,1-8,1.61H73.65a7.16,7.16,0,0,1-2.8-.56,6.78,6.78,0,0,1-2.28-1.54,7.6,7.6,0,0,1-1.51-2.28,6.88,6.88,0,0,1-.56-2.77V37.71a6.87,6.87,0,0,1,.56-2.77,7.14,7.14,0,0,1,1.51-2.24,7,7,0,0,1,2.28-1.51,7.14,7.14,0,0,1,2.8-.56H96.78a19.93,19.93,0,0,1,8,1.61,20.4,20.4,0,0,1,10.9,10.9A19.93,19.93,0,0,1,117.24,51.09Zm-16,4.42a6.24,6.24,0,0,0-4.42-10.65h-16V57.33h16A6,6,0,0,0,101.19,55.5ZM80.73,84h16a6.08,6.08,0,0,0,4.42-1.79A5.9,5.9,0,0,0,103,77.79a6.22,6.22,0,0,0-6.24-6.24h-16Z" style="fill:#fff"/><path d="M158.14,30.68a29.4,29.4,0,0,1,12.38,2.67,32.17,32.17,0,0,1,10.12,7.22A34.87,34.87,0,0,1,190,64.45a34.89,34.89,0,0,1-1.15,9,35.41,35.41,0,0,1-3.22,8.07,33.53,33.53,0,0,1-5,6.82,32.08,32.08,0,0,1-6.43,5.27A31.33,31.33,0,0,1,166.61,97a30.1,30.1,0,0,1-16.94,0,31.35,31.35,0,0,1-7.61-3.41,32.07,32.07,0,0,1-6.43-5.27,33.43,33.43,0,0,1-5-6.82,35.33,35.33,0,0,1-3.22-8.07,34.81,34.81,0,0,1-1.15-9h13.38a20.16,20.16,0,0,0,1.44,7.62,19.81,19.81,0,0,0,4,6.23A18.54,18.54,0,0,0,151,82.5a17.69,17.69,0,0,0,14.37,0,18.54,18.54,0,0,0,5.87-4.2,19.83,19.83,0,0,0,4-6.23,20.93,20.93,0,0,0,0-15.24,19.83,19.83,0,0,0-4-6.23,18.54,18.54,0,0,0-5.87-4.2,17.15,17.15,0,0,0-7.18-1.53Z" style="fill:#fff"/><path d="M230.85,59.32a27.68,27.68,0,0,1,6,3.19,22,22,0,0,1,4.62,4.33,19.83,19.83,0,0,1,3,5.17,15.74,15.74,0,0,1,1.06,5.7,16.3,16.3,0,0,1-2,7.85A20.78,20.78,0,0,1,238.06,92a26.87,26.87,0,0,1-8.14,4.33,31.06,31.06,0,0,1-10,1.58,32.52,32.52,0,0,1-9.79-1.38,36.76,36.76,0,0,1-7.76-3.39,28.13,28.13,0,0,1-5.68-4.33,24.21,24.21,0,0,1-3.48-4.26h-.09a5.68,5.68,0,0,1-1-5.33,7.3,7.3,0,0,1,4.11-4.33,11.06,11.06,0,0,1,3.35-.94,10.13,10.13,0,0,1,3.39.17,11.37,11.37,0,0,1,3.09,1.17,7.34,7.34,0,0,1,2.37,2.08l.17.2a.61.61,0,0,1,.21.27.57.57,0,0,0,.21.27,7.16,7.16,0,0,0,.72,1A11.88,11.88,0,0,0,211.86,81a16.05,16.05,0,0,0,3.35,1.91,11.66,11.66,0,0,0,4.7.87,9.79,9.79,0,0,0,3.05-.47,8,8,0,0,0,2.5-1.31,6.21,6.21,0,0,0,1.65-1.95,5,5,0,0,0,.59-2.38,5.42,5.42,0,0,0-1.14-3.29,6.67,6.67,0,0,0-3.18-2.28L208.3,67a1.54,1.54,0,0,1-.51-.13,23,23,0,0,1-9.66-7,15.76,15.76,0,0,1-3.56-10,15.16,15.16,0,0,1,1.91-7.38,19.69,19.69,0,0,1,5.13-6,25.56,25.56,0,0,1,7.59-4.06,28.44,28.44,0,0,1,9.37-1.51,27.55,27.55,0,0,1,8.94,1.38,39.51,39.51,0,0,1,7,3.12,30.06,30.06,0,0,1,4.79,3.32q1.78,1.58,2.12,2A6.72,6.72,0,0,1,243,43.25a5.63,5.63,0,0,1,.25,2.72,6,6,0,0,1-1.1,2.58,7.77,7.77,0,0,1-2.33,2.11,9.61,9.61,0,0,1-3.18,1.21,11.82,11.82,0,0,1-3.43.17A10.49,10.49,0,0,1,230,51.2a8.15,8.15,0,0,1-2.63-1.81,14.78,14.78,0,0,0-1.48-1.31,15.7,15.7,0,0,0-2.2-1.44,17.86,17.86,0,0,0-2.54-1.14,7.67,7.67,0,0,0-2.58-.47,6.82,6.82,0,0,0-4.37,1.44,4.29,4.29,0,0,0-1.82,3.46,4,4,0,0,0,.89,2.48,6.2,6.2,0,0,0,2.33,1.81l14.92,5a.42.42,0,0,1,.21,0A.2.2,0,0,0,230.85,59.32Z" style="fill:#fff"/><circle cx="43.88" cy="40.05" r="9.39" style="fill:#fff"/><path d="M133.68,62.75c-8.46,0-11.51-8.52-11.54-8.61a.85.85,0,0,1,.11-.77A.76.76,0,0,1,123,53c6,.06,7.56-5.63,7.62-5.87a.85.85,0,0,1,1.65.42c0,.07-1.69,6.39-8,7.09,1.09,2.19,4.19,6.93,10.5,6.35a.85.85,0,1,1,.15,1.69Q134.26,62.75,133.68,62.75Z" style="fill:#fff"/><circle cx="123.38" cy="53.18" r="2.93" style="fill:#fff"/><circle cx="133.87" cy="55.16" r="1.37" transform="translate(71.53 185.84) rotate(-86.89)" style="fill:#fff"/><path d="M133.19,45.06a1,1,0,0,1-.84-1.54A26.81,26.81,0,0,1,155,31a1,1,0,0,1,.95,1,1,1,0,0,1-1,1A25.23,25.23,0,0,0,134,44.6,1,1,0,0,1,133.19,45.06Z" style="fill:#fff"/><path d="M136.81,49.18a1,1,0,0,1-.84-1.54c7.32-11.32,18.63-10.78,19.11-10.75A1,1,0,0,1,156,38a1,1,0,0,1-1.06.94h0c-.43,0-10.64-.47-17.31,9.84A1,1,0,0,1,136.81,49.18Z" style="fill:#fff"/><path d="M140.73,52.93a1,1,0,0,1-.84-1.54C146,42,154.7,43,155.06,43a1,1,0,0,1,.87,1.12,1,1,0,0,1-1.11.87c-.32,0-7.85-.84-13.25,7.49A1,1,0,0,1,140.73,52.93Z" style="fill:#fff"/></g></g></g>
    </symbol>
    <symbol id="svg-logo3" viewBox="0 0 280 130">
      <title>logo3</title><g id="Layer_2" data-name="Layer 2"><g id="design"><g id="_01_black_w" data-name="01_black_w"><rect width="280" height="130"/><path d="M43.84,54.3a6.9,6.9,0,0,1,2.86.6A8.1,8.1,0,0,1,49,56.47a7.35,7.35,0,0,1,1.6,2.31,7,7,0,0,1,.59,2.87V92a7,7,0,0,1-.59,2.87A7.8,7.8,0,0,1,49,97.24,7.32,7.32,0,0,1,36.52,92V61.65a7.36,7.36,0,0,1,.56-2.87,6.92,6.92,0,0,1,1.57-2.31A8.1,8.1,0,0,1,41,54.89,6.91,6.91,0,0,1,43.84,54.3Z" style="fill:#fff"/><path d="M117.24,51.09a19.8,19.8,0,0,1-1.33,7.22,20.51,20.51,0,0,1-3.64,6.1,20.56,20.56,0,0,1,3.64,6.1,20.52,20.52,0,0,1-.28,15.24,20.4,20.4,0,0,1-10.9,10.9,19.93,19.93,0,0,1-8,1.61H73.65a7.16,7.16,0,0,1-2.8-.56,6.78,6.78,0,0,1-2.28-1.54,7.6,7.6,0,0,1-1.51-2.28,6.88,6.88,0,0,1-.56-2.77V37.71a6.87,6.87,0,0,1,.56-2.77,7.14,7.14,0,0,1,1.51-2.24,7,7,0,0,1,2.28-1.51,7.14,7.14,0,0,1,2.8-.56H96.78a19.93,19.93,0,0,1,8,1.61,20.4,20.4,0,0,1,10.9,10.9A19.93,19.93,0,0,1,117.24,51.09Zm-16,4.42a6.24,6.24,0,0,0-4.42-10.65h-16V57.33h16A6,6,0,0,0,101.19,55.5ZM80.73,84h16a6.08,6.08,0,0,0,4.42-1.79A5.9,5.9,0,0,0,103,77.79a6.22,6.22,0,0,0-6.24-6.24h-16Z" style="fill:#fff"/><path d="M158.14,30.68a29.4,29.4,0,0,1,12.38,2.67,32.17,32.17,0,0,1,10.12,7.22A34.87,34.87,0,0,1,190,64.45a34.89,34.89,0,0,1-1.15,9,35.41,35.41,0,0,1-3.22,8.07,33.53,33.53,0,0,1-5,6.82,32.08,32.08,0,0,1-6.43,5.27A31.33,31.33,0,0,1,166.61,97a30.1,30.1,0,0,1-16.94,0,31.35,31.35,0,0,1-7.61-3.41,32.07,32.07,0,0,1-6.43-5.27,33.43,33.43,0,0,1-5-6.82,35.33,35.33,0,0,1-3.22-8.07,34.81,34.81,0,0,1-1.15-9h13.38a20.16,20.16,0,0,0,1.44,7.62,19.81,19.81,0,0,0,4,6.23A18.54,18.54,0,0,0,151,82.5a17.69,17.69,0,0,0,14.37,0,18.54,18.54,0,0,0,5.87-4.2,19.83,19.83,0,0,0,4-6.23,20.93,20.93,0,0,0,0-15.24,19.83,19.83,0,0,0-4-6.23,18.54,18.54,0,0,0-5.87-4.2,17.15,17.15,0,0,0-7.18-1.53Z" style="fill:#fff"/><path d="M230.85,59.32a27.68,27.68,0,0,1,6,3.19,22,22,0,0,1,4.62,4.33,19.83,19.83,0,0,1,3,5.17,15.74,15.74,0,0,1,1.06,5.7,16.3,16.3,0,0,1-2,7.85A20.78,20.78,0,0,1,238.06,92a26.87,26.87,0,0,1-8.14,4.33,31.06,31.06,0,0,1-10,1.58,32.52,32.52,0,0,1-9.79-1.38,36.76,36.76,0,0,1-7.76-3.39,28.13,28.13,0,0,1-5.68-4.33,24.21,24.21,0,0,1-3.48-4.26h-.09a5.68,5.68,0,0,1-1-5.33,7.3,7.3,0,0,1,4.11-4.33,11.06,11.06,0,0,1,3.35-.94,10.13,10.13,0,0,1,3.39.17,11.37,11.37,0,0,1,3.09,1.17,7.34,7.34,0,0,1,2.37,2.08l.17.2a.61.61,0,0,1,.21.27.57.57,0,0,0,.21.27,7.16,7.16,0,0,0,.72,1A11.88,11.88,0,0,0,211.86,81a16.05,16.05,0,0,0,3.35,1.91,11.66,11.66,0,0,0,4.7.87,9.79,9.79,0,0,0,3.05-.47,8,8,0,0,0,2.5-1.31,6.21,6.21,0,0,0,1.65-1.95,5,5,0,0,0,.59-2.38,5.42,5.42,0,0,0-1.14-3.29,6.67,6.67,0,0,0-3.18-2.28L208.3,67a1.54,1.54,0,0,1-.51-.13,23,23,0,0,1-9.66-7,15.76,15.76,0,0,1-3.56-10,15.16,15.16,0,0,1,1.91-7.38,19.69,19.69,0,0,1,5.13-6,25.56,25.56,0,0,1,7.59-4.06,28.44,28.44,0,0,1,9.37-1.51,27.55,27.55,0,0,1,8.94,1.38,39.51,39.51,0,0,1,7,3.12,30.06,30.06,0,0,1,4.79,3.32q1.78,1.58,2.12,2A6.72,6.72,0,0,1,243,43.25a5.63,5.63,0,0,1,.25,2.72,6,6,0,0,1-1.1,2.58,7.77,7.77,0,0,1-2.33,2.11,9.61,9.61,0,0,1-3.18,1.21,11.82,11.82,0,0,1-3.43.17A10.49,10.49,0,0,1,230,51.2a8.15,8.15,0,0,1-2.63-1.81,14.78,14.78,0,0,0-1.48-1.31,15.7,15.7,0,0,0-2.2-1.44,17.86,17.86,0,0,0-2.54-1.14,7.67,7.67,0,0,0-2.58-.47,6.82,6.82,0,0,0-4.37,1.44,4.29,4.29,0,0,0-1.82,3.46,4,4,0,0,0,.89,2.48,6.2,6.2,0,0,0,2.33,1.81l14.92,5a.42.42,0,0,1,.21,0A.2.2,0,0,0,230.85,59.32Z" style="fill:#fff"/><circle cx="43.88" cy="40.05" r="9.39" style="fill:#fff"/><path d="M133.68,62.75c-8.46,0-11.51-8.52-11.54-8.61a.85.85,0,0,1,.11-.77A.76.76,0,0,1,123,53c6,.06,7.56-5.63,7.62-5.87a.85.85,0,0,1,1.65.42c0,.07-1.69,6.39-8,7.09,1.09,2.19,4.19,6.93,10.5,6.35a.85.85,0,1,1,.15,1.69Q134.26,62.75,133.68,62.75Z" style="fill:#fff"/><circle cx="123.38" cy="53.18" r="2.93" style="fill:#fff"/><circle cx="133.87" cy="55.16" r="1.37" transform="translate(71.53 185.84) rotate(-86.89)" style="fill:#fff"/><path d="M133.19,45.06a1,1,0,0,1-.84-1.54A26.81,26.81,0,0,1,155,31a1,1,0,0,1,.95,1,1,1,0,0,1-1,1A25.23,25.23,0,0,0,134,44.6,1,1,0,0,1,133.19,45.06Z" style="fill:#fff"/><path d="M136.81,49.18a1,1,0,0,1-.84-1.54c7.32-11.32,18.63-10.78,19.11-10.75A1,1,0,0,1,156,38a1,1,0,0,1-1.06.94h0c-.43,0-10.64-.47-17.31,9.84A1,1,0,0,1,136.81,49.18Z" style="fill:#fff"/><path d="M140.73,52.93a1,1,0,0,1-.84-1.54C146,42,154.7,43,155.06,43a1,1,0,0,1,.87,1.12,1,1,0,0,1-1.11.87c-.32,0-7.85-.84-13.25,7.49A1,1,0,0,1,140.73,52.93Z" style="fill:#fff"/></g></g></g>
    </symbol></svg>